<svg width="32" height="33" viewBox="0 0 32 33" fill="none" xmlns="http://www.w3.org/2000/svg">
<path fill-rule="evenodd" clip-rule="evenodd" d="M8 5.31616C7.44772 5.31616 7 5.76388 7 6.31616V22.1336C7 22.4983 7.19853 22.8341 7.51808 23.0098L15.5097 27.4052C15.8121 27.5715 16.1788 27.5702 16.4799 27.4017L24.3167 23.0162C24.6326 22.8394 24.8283 22.5056 24.8283 22.1435V14.4492C24.8283 13.8969 25.2761 13.4492 25.8283 13.4492C26.3806 13.4492 26.8283 13.8969 26.8283 14.4492V22.1435C26.8283 23.2297 26.2412 24.231 25.2934 24.7615L17.4566 29.147C16.5532 29.6525 15.453 29.6566 14.5458 29.1576L6.55424 24.7623C5.5956 24.235 5 23.2277 5 22.1336V6.31616C5 4.65931 6.34315 3.31616 8 3.31616H18.0564C18.6087 3.31616 19.0564 3.76388 19.0564 4.31616C19.0564 4.86845 18.6087 5.31616 18.0564 5.31616H8Z" fill="#4F5162"/>
<path fill-rule="evenodd" clip-rule="evenodd" d="M26.5411 6.84612C26.9316 7.23665 26.9316 7.86982 26.541 8.26034L16.1477 18.6535L10.5864 13.0923C10.1958 12.7018 10.1958 12.0686 10.5863 11.6781C10.9769 11.2876 11.61 11.2876 12.0006 11.6781L16.1477 15.8251L25.1268 6.84611C25.5174 6.45559 26.1505 6.4556 26.5411 6.84612Z" fill="#4F5162"/>
</svg>
