<svg width="32" height="32" viewBox="0 0 32 32" fill="none" xmlns="http://www.w3.org/2000/svg">
<path fill-rule="evenodd" clip-rule="evenodd" d="M6 4C6 3.44772 6.44772 3 7 3H27C27.5523 3 28 3.44772 28 4V21.9671C28 24.994 25.7594 27.4947 22.8504 27.9074C22.7414 27.9482 22.6233 27.9705 22.5 27.9705C22.3841 27.9705 22.2701 27.9687 22.158 27.9651C22.0925 27.9668 22.0267 27.9674 21.9607 27.967L21.2343 27.9622L14.0052 28L14 28H8C5.23858 28 3 25.7614 3 23V21C3 20.4477 3.44772 20 4 20H6V4ZM8 20H18C18.5523 20 19 20.4477 19 21C19 22.5767 19.0222 23.7994 19.4557 24.6607C19.6492 25.0451 19.9252 25.3488 20.3557 25.5701C20.7528 25.7743 21.3261 25.9307 22.1613 25.9639C24.294 25.8796 26 24.1237 26 21.9671V5H8V20ZM17.9107 25.9796C17.8222 25.8442 17.7419 25.7041 17.6693 25.5598C17.1327 24.4938 17.0259 23.1939 17.0049 22H5V23C5 24.6569 6.34315 26 8 26H14L17.9107 25.9796Z" fill="#4F5162"/>
<path fill-rule="evenodd" clip-rule="evenodd" d="M23.3796 8.57928C23.7701 8.96981 23.7701 9.60297 23.3796 9.99349L15.9587 17.4142L12.2304 13.686C11.8399 13.2955 11.8399 12.6623 12.2304 12.2718C12.6209 11.8812 13.2541 11.8812 13.6446 12.2717L15.9587 14.5858L21.9654 8.57926C22.3559 8.18874 22.9891 8.18875 23.3796 8.57928Z" fill="#4F5162"/>
</svg>
